<?xml version="1.0" encoding="UTF-8" standalone="no"?>
<!-- Created with Inkscape (http://www.inkscape.org/) -->

<svg
   xmlns:dc="http://purl.org/dc/elements/1.1/"
   xmlns:cc="http://creativecommons.org/ns#"
   xmlns:rdf="http://www.w3.org/1999/02/22-rdf-syntax-ns#"
   xmlns:svg="http://www.w3.org/2000/svg"
   xmlns="http://www.w3.org/2000/svg"
   xmlns:xlink="http://www.w3.org/1999/xlink"
   xmlns:sodipodi="http://sodipodi.sourceforge.net/DTD/sodipodi-0.dtd"
   xmlns:inkscape="http://www.inkscape.org/namespaces/inkscape"
   width="2320"
   height="1212"
   id="svg2"
   version="1.1"
   inkscape:version="0.48.3.1 r9886"
   sodipodi:docname="background_overlay.svg">
  <defs
     id="defs4">
    <linearGradient
       inkscape:collect="always"
       id="linearGradient4159">
      <stop
         style="stop-color:#ffffff;stop-opacity:1;"
         offset="0"
         id="stop4161" />
      <stop
         style="stop-color:#ffffff;stop-opacity:0;"
         offset="1"
         id="stop4163" />
    </linearGradient>
    <clipPath
       clipPathUnits="userSpaceOnUse"
       id="clipPath3874">
      <path
         inkscape:connector-curvature="0"
         d="m 0,0 3231,0 0,1275.59 -3231,0 L 0,0 z"
         id="path3876" />
    </clipPath>
    <clipPath
       clipPathUnits="userSpaceOnUse"
       id="clipPath3898">
      <path
         inkscape:connector-curvature="0"
         d="m 673.137,883.871 5.109,6.547 8.664,1.055 6.531,-5.137 43.207,0 6.551,5.137 8.637,-1.055 5.133,-6.535 41.961,-10.348 7.574,3.422 8.141,-3.098 3.414,-7.586 38.214,-20.043 8.176,1.489 7.156,-4.926 1.5,-8.203 32.36,-28.633 8.281,-0.527 5.762,-6.504 -0.488,-8.301 24.511,-35.508 7.938,-2.48 4.062,-7.715 -2.469,-7.93 15.321,-40.41 7.129,-4.297 2.07,-8.457 -4.285,-7.109 5.183,-42.891 5.879,-5.879 0,-8.73 -5.879,-5.86 -5.183,-42.851 4.305,-7.11 -2.071,-8.476 -7.129,-4.277 -15.32,-40.411 2.469,-7.929 -4.063,-7.735 -7.918,-2.461 -24.55,-35.547 0.488,-8.32 -5.762,-6.504 -8.281,-0.488 -32.317,-28.633 -1.503,-8.183 -7.149,-4.961 -8.184,1.523 -38.265,-20.078 -3.402,-7.598 -8.141,-3.086 -7.582,3.418 -41.91,-10.351 -5.125,-6.543 -8.649,-1.035 -6.535,5.136 -43.219,0 -6.535,-5.136 -8.648,1.035 -5.121,6.543 -41.965,10.351 -7.57,-3.418 -8.141,3.086 -3.426,7.598 -38.211,20.039 -8.176,-1.504 -7.171,4.961 -1.489,8.184 -32.359,28.652 -8.285,0.488 -5.782,6.504 0.493,8.32 -24.512,35.489 -7.941,2.48 -4.043,7.715 2.468,7.949 -15.328,40.41 -7.109,4.278 -2.09,8.476 4.297,7.09 -5.207,42.91 -5.875,5.86 0,8.73 5.875,5.879 5.199,42.832 -4.305,7.129 2.09,8.457 7.113,4.297 15.321,40.41 -2.477,7.93 4.047,7.715 7.938,2.48 24.55,35.547 -0.504,8.301 5.782,6.504 8.285,0.527 32.316,28.613 1.489,8.184 7.175,4.945 8.172,-1.508 38.266,20.082 3.414,7.586 8.141,3.098 7.57,-3.422 41.922,10.336 z"
         id="path3900" />
    </clipPath>
    <clipPath
       clipPathUnits="userSpaceOnUse"
       id="clipPath3994">
      <path
         inkscape:connector-curvature="0"
         d="m 0,0 0,1276 3231,0 L 3231,0 0,0 z"
         id="path3996" />
    </clipPath>
    <clipPath
       clipPathUnits="userSpaceOnUse"
       id="clipPath4024">
      <path
         inkscape:connector-curvature="0"
         d="m 715.074,354.258 c 148.75,0 269.324,120.586 269.324,269.336 0,148.73 -120.574,269.34 -269.324,269.34 -148.762,0 -269.347,-120.61 -269.347,-269.34 0,-148.75 120.585,-269.336 269.347,-269.336 z"
         id="path4026" />
    </clipPath>
    <clipPath
       clipPathUnits="userSpaceOnUse"
       id="clipPath4098">
      <path
         inkscape:connector-curvature="0"
         d="m 715.074,354.258 c 148.75,0 269.324,120.586 269.324,269.336 0,148.73 -120.574,269.34 -269.324,269.34 -148.762,0 -269.347,-120.61 -269.347,-269.34 0,-148.75 120.585,-269.336 269.347,-269.336 z"
         id="path4100" />
    </clipPath>
    <clipPath
       clipPathUnits="userSpaceOnUse"
       id="clipPath4104">
      <path
         inkscape:connector-curvature="0"
         d="m 807.465,368.184 -66.598,150.8 11.141,-164.492"
         id="path4106" />
    </clipPath>
    <clipPath
       clipPathUnits="userSpaceOnUse"
       id="clipPath4114">
      <path
         inkscape:connector-curvature="0"
         d="m 715.074,354.258 c 148.75,0 269.324,120.586 269.324,269.336 0,148.73 -120.574,269.34 -269.324,269.34 -148.762,0 -269.347,-120.61 -269.347,-269.34 0,-148.75 120.585,-269.336 269.347,-269.336 z"
         id="path4116" />
    </clipPath>
    <clipPath
       clipPathUnits="userSpaceOnUse"
       id="clipPath4158">
      <path
         inkscape:connector-curvature="0"
         d="m 0,0 0,1276 3231,0 L 3231,0 0,0 z"
         id="path4160" />
    </clipPath>
    <radialGradient
       inkscape:collect="always"
       xlink:href="#linearGradient4159"
       id="radialGradient4165"
       cx="2125.3608"
       cy="-8.2642727"
       fx="2125.3608"
       fy="-8.2642727"
       r="2230.4167"
       gradientUnits="userSpaceOnUse" />
    <radialGradient
       inkscape:collect="always"
       xlink:href="#linearGradient4159"
       id="radialGradient3149"
       gradientUnits="userSpaceOnUse"
       cx="2125.3608"
       cy="-8.2642727"
       fx="2125.3608"
       fy="-8.2642727"
       r="2230.4167" />
    <radialGradient
       inkscape:collect="always"
       xlink:href="#linearGradient4159"
       id="radialGradient3185"
       gradientUnits="userSpaceOnUse"
       cx="2125.3608"
       cy="-8.2642727"
       fx="2125.3608"
       fy="-8.2642727"
       r="2230.4167" />
  </defs>
  <sodipodi:namedview
     id="base"
     pagecolor="#ffffff"
     bordercolor="#666666"
     borderopacity="1.0"
     inkscape:pageopacity="0.0"
     inkscape:pageshadow="2"
     inkscape:zoom="0.7"
     inkscape:cx="640.63903"
     inkscape:cy="960.20923"
     inkscape:document-units="px"
     inkscape:current-layer="layer1"
     showgrid="false"
     inkscape:window-width="1680"
     inkscape:window-height="979"
     inkscape:window-x="0"
     inkscape:window-y="24"
     inkscape:window-maximized="1" />
  <metadata
     id="metadata7">
    <rdf:RDF>
      <cc:Work
         rdf:about="">
        <dc:format>image/svg+xml</dc:format>
        <dc:type
           rdf:resource="http://purl.org/dc/dcmitype/StillImage" />
      </cc:Work>
    </rdf:RDF>
  </metadata>
  <g
     inkscape:label="Layer 1"
     inkscape:groupmode="layer"
     id="layer1"
     transform="translate(0,159.63782)">
    <path
       style="fill:#ffffff;fill-opacity:1;fill-rule:nonzero;stroke:none;stroke-opacity:1;opacity:0.50000000000000000;stroke-width:4;stroke-miterlimit:4;stroke-dasharray:none;stroke-linejoin:round;stroke-dashoffset:0"
       d="M -4228.5625 -2513.7188 L -4228.5625 2697.7188 L 2516.3438 2697.7188 C 1180.1022 2586.5984 130.28125 1466.8769 130.28125 101.9375 C 130.28125 -1336.6849 1296.5026 -2502.9062 2735.125 -2502.9062 C 2752.978 -2502.9062 2770.7951 -2502.7325 2788.5625 -2502.375 L 2788.5625 -2513.7188 L -4228.5625 -2513.7188 z "
       id="rect5060"
       transform="translate(0,-159.63782)" />
    <path
       id="path3360"
       d="m -4226.5625,-2673.3566 0,5211.4376 6744.9063,0 C 1182.1022,2426.9606 132.28125,1307.2391 132.28125,-57.70032 c 0,-1438.62238 1166.22135,-2604.84368 2604.84375,-2604.84368 17.853,0 35.6701,0.1737 53.4375,0.5312 l 0,-11.3438 -7017.125,0 z"
       style="fill:none;stroke:#777777;stroke-width:4;stroke-linejoin:round;stroke-miterlimit:4;stroke-opacity:1;stroke-dasharray:none;stroke-dashoffset:0"
       inkscape:connector-curvature="0" />
    <g
       id="g4896"
       transform="matrix(1.8498825,0,0,1.8498825,-81.331814,-667.39727)">
      <g
         transform="matrix(0.125,0,0,-0.125,25.480727,411.7403)"
         clip-path="url(#clipPath3874)"
         id="g3872">
        <path
           inkscape:connector-curvature="0"
           id="path3878"
           style="fill:#000000;fill-opacity:1;fill-rule:nonzero;stroke:none"
           d="m 1153.64,686.141 48.75,0 0,-7.325 -1.34,0 c -15.03,0 -17.3,-6.57 -17.3,-15.613 l 0,-46.808 c 0,-41.954 -30.45,-49.825 -52.83,-49.825 -33.86,0 -55.3,14.641 -55.3,43.418 l 0,56.035 c 0,9.426 -2.62,12.793 -13.16,12.793 l -3.21,0 0,7.325 58.87,0 0,-7.325 -3.16,0 c -7.95,0 -13.36,-3.562 -13.36,-12.793 l 0,-56.035 c 0,-22.937 16.88,-30.84 33.99,-30.84 24.66,0 36.91,13.899 36.91,34.602 l 0,45.691 c 0,13.352 -3.78,19.375 -15.45,19.375 l -3.41,0 0,7.325" />
        <path
           inkscape:connector-curvature="0"
           id="path3880"
           style="fill:#000000;fill-opacity:1;fill-rule:nonzero;stroke:none"
           d="m 1232.26,590.039 c 0,-6.965 3.16,-9.934 8.63,-9.934 4.51,0 8.83,2.805 14.29,9.387 l 2.65,-5.265 c -5.65,-10.145 -16.94,-17.11 -27.29,-17.11 -12.76,0 -21.28,7.168 -21.28,23.321 l 0,45.109 -9.94,0 0,4.93 c 11.28,4.679 24.11,18.418 27.47,28.937 l 5.47,0 0,-23.508 24.6,0 -2.8,-10.359 -21.8,0 0,-45.508" />
        <path
           inkscape:connector-curvature="0"
           id="path3882"
           style="fill:#000000;fill-opacity:1;fill-rule:nonzero;stroke:none"
           d="m 1318.76,569.188 -52.3,0 0,6.007 1.32,0 c 7.72,0 10.53,3.379 10.53,13.145 l 0,30.664 c 0,8.457 -1.12,10.359 -6.75,12.605 l -5.1,2.09 0,4.68 30.84,11.66 3.97,0 0,-21.047 0.38,0 c 6.94,13.535 9.96,18.985 16.36,18.985 1.29,0 2.82,-0.196 3.74,-0.555 l 14.86,-5.469 c -2.25,-7.91 -5.26,-14.641 -8.98,-19.922 -5.88,2.266 -12.82,4.696 -15.29,4.696 -3.75,0 -6.92,-2.645 -11.07,-8.457 l 0,-30.477 c 0,-9.043 2.83,-12.598 12.61,-12.598 l 4.88,0 0,-6.007" />
        <path
           inkscape:connector-curvature="0"
           id="path3884"
           style="fill:#000000;fill-opacity:1;fill-rule:nonzero;stroke:none"
           d="m 1394.18,615.801 c -0.18,14.492 -5.26,23.32 -13.37,23.32 -7.7,0 -14.63,-9.933 -13.34,-23.32 l 26.71,0 z m 24.23,-24.805 c -10.49,-14.824 -25.74,-23.879 -40.23,-23.879 -20.5,0 -34.41,15.793 -34.41,38.547 0,24.824 16.77,42.313 40.23,42.313 10,0 17.9,-3.204 23.71,-9.032 11.1,-11.086 5.85,-21.621 12.43,-25.011 l 0,-5.45 -52.1,0 c 1.51,-15.613 12.02,-27.449 23.14,-27.449 6.93,0 13.71,3.926 22.96,13.555 l 4.27,-3.594" />
        <path
           inkscape:connector-curvature="0"
           id="path3886"
           style="fill:#000000;fill-opacity:1;fill-rule:nonzero;stroke:none"
           d="m 1509.26,587.234 c -8.65,-13.152 -21.83,-20.117 -38.36,-20.117 -22.94,0 -39.51,15.625 -39.51,37.246 0,24.629 21.28,43.614 48.7,43.614 16.18,0 28.42,-6.766 28.42,-15.985 0,-5.625 -3.75,-9.414 -9.62,-9.414 -13.12,0 -15.93,16.746 -26.84,16.746 -9.42,0 -15.84,-11.465 -15.84,-28.379 0,-20.32 9.62,-34.043 23.52,-34.043 8.49,0 16.36,4.309 24.07,13.352 l 5.46,-3.02" />
        <path
           inkscape:connector-curvature="0"
           id="path3888"
           style="fill:#000000;fill-opacity:1;fill-rule:nonzero;stroke:none"
           d="m 1550.05,588.164 c 0,-11.836 3.22,-12.969 9.79,-12.969 l 1.87,0 0,-6.007 -47.6,0 0,6.007 2.68,0 c 9.6,0 10.33,3.77 10.33,13.739 l 0,82.179 c 0,5.43 -0.95,6.758 -6.02,8.457 l -5.46,1.875 0,4.336 29.91,9.207 4.5,0 0,-61.289 c 10.55,7.324 24.06,14.278 33.84,14.278 13.78,0 20.54,-11.075 20.54,-33.27 l 0,-24.855 c 0,-11.102 1.29,-14.657 8.46,-14.657 l 1.84,0 0,-6.007 -44.37,0 0,6.007 1.51,0 c 7.89,0 9.6,3.035 9.6,13.739 l 0,28.39 c 0,10.137 -4.71,16.543 -12.22,16.543 -5.1,0 -12.6,-2.805 -19.2,-7.14 l 0,-38.563" />
        <path
           inkscape:connector-curvature="0"
           id="path3890"
           style="fill:#000000;fill-opacity:1;fill-rule:nonzero;stroke:none"
           d="m 1655.77,590.039 c 0,-6.965 3.19,-9.934 8.63,-9.934 4.52,0 8.82,2.805 14.31,9.387 l 2.63,-5.265 c -5.65,-10.145 -16.94,-17.11 -27.28,-17.11 -12.79,0 -21.25,7.168 -21.25,23.321 l 0,45.109 -9.95,0 0,4.93 c 11.29,4.679 24.07,18.418 27.43,28.937 l 5.48,0 0,-23.508 24.59,0 -2.77,-10.359 -21.82,0 0,-45.508" />
        <path
           inkscape:connector-curvature="0"
           id="path3892"
           style="fill:#fcd205;fill-opacity:1;fill-rule:nonzero;stroke:none"
           d="m 673.137,883.871 5.109,6.547 8.664,1.055 6.531,-5.137 43.207,0 6.551,5.137 8.637,-1.055 5.133,-6.535 41.961,-10.348 7.574,3.422 8.141,-3.098 3.414,-7.586 38.214,-20.043 8.176,1.489 7.156,-4.926 1.5,-8.203 32.36,-28.633 8.281,-0.527 5.762,-6.504 -0.488,-8.301 24.511,-35.508 7.938,-2.48 4.062,-7.715 -2.469,-7.93 15.321,-40.41 7.129,-4.297 2.07,-8.457 -4.285,-7.109 5.183,-42.891 5.879,-5.879 0,-8.73 -5.879,-5.86 -5.183,-42.851 4.305,-7.11 -2.071,-8.476 -7.129,-4.277 -15.32,-40.411 2.469,-7.929 -4.063,-7.735 -7.918,-2.461 -24.55,-35.547 0.488,-8.32 -5.762,-6.504 -8.281,-0.488 -32.317,-28.633 -1.503,-8.183 -7.149,-4.961 -8.184,1.523 -38.265,-20.078 -3.402,-7.598 -8.141,-3.086 -7.582,3.418 -41.91,-10.351 -5.125,-6.543 -8.649,-1.035 -6.535,5.136 -43.219,0 -6.535,-5.136 -8.648,1.035 -5.121,6.543 -41.965,10.351 -7.57,-3.418 -8.141,3.086 -3.426,7.598 -38.211,20.039 -8.176,-1.504 -7.171,4.961 -1.489,8.184 -32.359,28.652 -8.285,0.488 -5.782,6.504 0.493,8.32 -24.512,35.489 -7.941,2.48 -4.043,7.715 2.468,7.949 -15.328,40.41 -7.109,4.278 -2.09,8.476 4.297,7.09 -5.207,42.91 -5.875,5.86 0,8.73 5.875,5.879 5.199,42.832 -4.305,7.129 2.09,8.457 7.113,4.297 15.321,40.41 -2.477,7.93 4.047,7.715 7.938,2.48 24.55,35.547 -0.504,8.301 5.782,6.504 8.285,0.527 32.316,28.613 1.489,8.184 7.175,4.945 8.172,-1.508 38.266,20.082 3.414,7.586 8.141,3.098 7.57,-3.422 41.922,10.336" />
      </g>
      <g
         transform="matrix(0.125,0,0,-0.125,25.480727,411.7403)"
         id="g3894">
        <g
           id="g3896"
           clip-path="url(#clipPath3898)">
          <path
             d="m 761.527,858.406 c 2.106,-1.269 5.606,-3.105 8.27,-3.746 3.031,-0.73 6.371,-0.926 7.238,2.606 0.848,3.461 -3.465,4.851 -7.527,7.23 -4.074,2.379 -7.953,5.738 -6.188,12.992 1.989,8.063 11.016,9.821 18.106,8.082 4.172,-1.035 7.836,-2.945 11.316,-5.363 l -4.445,-6.242 c -2.274,1.527 -5.531,3.012 -7.527,3.504 -4.665,1.14 -6.809,-0.117 -7.387,-2.504 -0.363,-1.516 0.394,-3.082 4.508,-5.063 9.058,-4.511 10.714,-8.992 9.433,-14.254 -2.269,-9.242 -10.554,-10.96 -18.89,-8.914 -3.899,0.946 -7.75,2.821 -11.133,4.969 l 4.226,6.703"
             style="fill:#ffffff;fill-opacity:1;fill-rule:nonzero;stroke:none"
             id="path3902"
             inkscape:connector-curvature="0" />
          <path
             d="m 761.527,858.406 c 2.106,-1.269 5.606,-3.105 8.27,-3.746 3.031,-0.73 6.371,-0.926 7.238,2.606 0.848,3.461 -3.465,4.851 -7.527,7.23 -4.074,2.379 -7.953,5.738 -6.188,12.992 1.989,8.063 11.016,9.821 18.106,8.082 4.172,-1.035 7.836,-2.945 11.316,-5.363 l -4.445,-6.242 c -2.274,1.527 -5.531,3.012 -7.527,3.504 -4.665,1.14 -6.809,-0.117 -7.387,-2.504 -0.363,-1.516 0.394,-3.082 4.508,-5.063 9.058,-4.511 10.714,-8.992 9.433,-14.254 -2.269,-9.242 -10.554,-10.96 -18.89,-8.914 -3.899,0.946 -7.75,2.821 -11.133,4.969 l 4.226,6.703 z"
             style="fill:none;stroke:#ffffff;stroke-width:2.16229939;stroke-linecap:butt;stroke-linejoin:miter;stroke-miterlimit:4;stroke-opacity:1;stroke-dasharray:none"
             id="path3904"
             inkscape:connector-curvature="0" />
          <path
             d="m 825.496,834.043 c 5.125,-2.695 11.102,-1.406 15.027,6.074 3.934,7.524 1.606,13.153 -3.527,15.844 -5.078,2.672 -11.027,1.398 -14.965,-6.113 -3.941,-7.504 -1.621,-13.149 3.465,-15.805 z m 15.285,28.992 c 11.598,-6.09 14.129,-17.801 8.938,-27.723 -5.223,-9.941 -16.305,-14.492 -27.903,-8.417 -11.648,6.113 -14.187,17.832 -8.98,27.765 5.211,9.922 16.301,14.481 27.945,8.375"
             style="fill:#ffffff;fill-opacity:1;fill-rule:nonzero;stroke:none"
             id="path3906"
             inkscape:connector-curvature="0" />
          <path
             d="m 825.496,834.043 c 5.125,-2.695 11.102,-1.406 15.027,6.074 3.934,7.524 1.606,13.153 -3.527,15.844 -5.078,2.672 -11.027,1.398 -14.965,-6.113 -3.941,-7.504 -1.621,-13.149 3.465,-15.805 z m 15.285,28.992 c 11.598,-6.09 14.129,-17.801 8.938,-27.723 -5.223,-9.941 -16.305,-14.492 -27.903,-8.417 -11.648,6.113 -14.187,17.832 -8.98,27.765 5.211,9.922 16.301,14.481 27.945,8.375 z"
             style="fill:none;stroke:#ffffff;stroke-width:2.16229939;stroke-linecap:butt;stroke-linejoin:miter;stroke-miterlimit:4;stroke-opacity:1;stroke-dasharray:none"
             id="path3908"
             inkscape:connector-curvature="0" />
          <path
             d="m 885.398,834.18 -25.054,-30.723 c 6.574,-5.332 12.844,-10.977 18.804,-16.992 l 6.063,6.015 c -3.91,3.946 -7.981,7.754 -12.168,11.446 l 20.398,23.457"
             style="fill:#ffffff;fill-opacity:1;fill-rule:nonzero;stroke:none"
             id="path3910"
             inkscape:connector-curvature="0" />
          <path
             d="m 885.398,834.18 -25.054,-30.723 c 6.574,-5.332 12.844,-10.977 18.804,-16.992 l 6.063,6.015 c -3.91,3.946 -7.981,7.754 -12.168,11.446 l 20.398,23.457"
             style="fill:none;stroke:#ffffff;stroke-width:2.16229939;stroke-linecap:butt;stroke-linejoin:miter;stroke-miterlimit:4;stroke-opacity:1;stroke-dasharray:none"
             id="path3912"
             inkscape:connector-curvature="0" />
          <path
             d="m 970.18,714.609 -37.5,-13.32 c -0.996,2.813 -2.137,5.781 -3.289,8.594 l 37.019,14.785"
             style="fill:#ffffff;fill-opacity:1;fill-rule:nonzero;stroke:none"
             id="path3914"
             inkscape:connector-curvature="0" />
          <path
             d="m 970.18,714.609 -37.5,-13.32 c -0.996,2.813 -2.137,5.781 -3.289,8.594 l 37.019,14.785"
             style="fill:none;stroke:#ffffff;stroke-width:2.16229939;stroke-linecap:butt;stroke-linejoin:miter;stroke-miterlimit:4;stroke-opacity:1;stroke-dasharray:none"
             id="path3916"
             inkscape:connector-curvature="0" />
          <path
             d="m 984.996,645.898 -30.664,6.192 -0.02,0.098 28.379,12.929 -1.796,10.41 -37.071,-19.336 c 0.535,-3.613 0.926,-7.187 1.278,-10.8 l 40.5,-9.532"
             style="fill:#ffffff;fill-opacity:1;fill-rule:nonzero;stroke:none"
             id="path3918"
             inkscape:connector-curvature="0" />
          <path
             d="m 984.996,645.898 -30.664,6.192 -0.02,0.098 28.379,12.929 -1.796,10.41 -37.071,-19.336 c 0.535,-3.613 0.926,-7.187 1.278,-10.8 l 40.5,-9.532"
             style="fill:none;stroke:#ffffff;stroke-width:2.16229939;stroke-linecap:butt;stroke-linejoin:miter;stroke-miterlimit:4;stroke-opacity:1;stroke-dasharray:none"
             id="path3920"
             inkscape:connector-curvature="0" />
          <path
             d="m 953.766,605.684 c -1.016,-2.246 -2.395,-5.938 -2.715,-8.653 -0.371,-3.105 -0.176,-6.445 3.437,-6.875 3.543,-0.429 4.414,4.024 6.27,8.36 1.883,4.296 4.734,8.574 12.176,7.675 8.234,-0.976 11.066,-9.746 10.187,-16.992 -0.508,-4.297 -1.992,-8.125 -3.945,-11.894 l -6.758,3.672 c 1.25,2.421 2.344,5.839 2.578,7.91 0.566,4.746 -0.949,6.738 -3.359,7.011 -1.555,0.196 -3.02,-0.742 -4.504,-5.097 -3.399,-9.512 -7.637,-11.699 -12.996,-11.055 -9.453,1.133 -12.16,9.16 -11.145,17.676 0.481,3.984 1.856,8.027 3.594,11.621 l 7.18,-3.359"
             style="fill:#ffffff;fill-opacity:1;fill-rule:nonzero;stroke:none"
             id="path3922"
             inkscape:connector-curvature="0" />
          <path
             d="m 953.766,605.684 c -1.016,-2.246 -2.395,-5.938 -2.715,-8.653 -0.371,-3.105 -0.176,-6.445 3.437,-6.875 3.543,-0.429 4.414,4.024 6.27,8.36 1.883,4.296 4.734,8.574 12.176,7.675 8.234,-0.976 11.066,-9.746 10.187,-16.992 -0.508,-4.297 -1.992,-8.125 -3.945,-11.894 l -6.758,3.672 c 1.25,2.421 2.344,5.839 2.578,7.91 0.566,4.746 -0.949,6.738 -3.359,7.011 -1.555,0.196 -3.02,-0.742 -4.504,-5.097 -3.399,-9.512 -7.637,-11.699 -12.996,-11.055 -9.453,1.133 -12.16,9.16 -11.145,17.676 0.481,3.984 1.856,8.027 3.594,11.621 l 7.18,-3.359 z"
             style="fill:none;stroke:#ffffff;stroke-width:2.16229939;stroke-linecap:butt;stroke-linejoin:miter;stroke-miterlimit:4;stroke-opacity:1;stroke-dasharray:none"
             id="path3924"
             inkscape:connector-curvature="0" />
          <path
             d="m 962.379,513.047 -9.172,4.082 c 1.34,2.969 2.637,6.035 3.848,9.101 l -27.606,11.153 c 1.133,2.812 2.235,5.801 3.231,8.613 l 28.078,-10.058 c 1.074,3.046 2.129,6.113 3.094,9.179 l 9.503,-2.988"
             style="fill:#ffffff;fill-opacity:1;fill-rule:nonzero;stroke:none"
             id="path3926"
             inkscape:connector-curvature="0" />
          <path
             d="m 962.379,513.047 -9.172,4.082 c 1.34,2.969 2.637,6.035 3.848,9.101 l -27.606,11.153 c 1.133,2.812 2.235,5.801 3.231,8.613 l 28.078,-10.058 c 1.074,3.046 2.129,6.113 3.094,9.179 l 9.503,-2.988"
             style="fill:none;stroke:#ffffff;stroke-width:2.16229939;stroke-linecap:butt;stroke-linejoin:miter;stroke-miterlimit:4;stroke-opacity:1;stroke-dasharray:none"
             id="path3928"
             inkscape:connector-curvature="0" />
          <path
             d="m 934.789,465.273 -32.234,23.321 c 1.746,2.441 3.554,5.097 5.203,7.597 l 33.183,-22.07"
             style="fill:#ffffff;fill-opacity:1;fill-rule:nonzero;stroke:none"
             id="path3930"
             inkscape:connector-curvature="0" />
          <path
             d="m 934.789,465.273 -32.234,23.321 c 1.746,2.441 3.554,5.097 5.203,7.597 l 33.183,-22.07"
             style="fill:none;stroke:#ffffff;stroke-width:2.16229939;stroke-linecap:butt;stroke-linejoin:miter;stroke-miterlimit:4;stroke-opacity:1;stroke-dasharray:none"
             id="path3932"
             inkscape:connector-curvature="0" />
          <path
             d="m 882.613,410.801 -6.207,7.812 c 2.578,2.051 5.137,4.121 7.649,6.27 l -19.266,22.734 c 2.313,1.953 4.668,4.082 6.883,6.113 l 20.152,-21.953 c 2.399,2.188 4.738,4.414 7,6.7 l 7.031,-7.11"
             style="fill:#ffffff;fill-opacity:1;fill-rule:nonzero;stroke:none"
             id="path3934"
             inkscape:connector-curvature="0" />
          <path
             d="m 882.613,410.801 -6.207,7.812 c 2.578,2.051 5.137,4.121 7.649,6.27 l -19.266,22.734 c 2.313,1.953 4.668,4.082 6.883,6.113 l 20.152,-21.953 c 2.399,2.188 4.738,4.414 7,6.7 l 7.031,-7.11"
             style="fill:none;stroke:#ffffff;stroke-width:2.16229939;stroke-linecap:butt;stroke-linejoin:miter;stroke-miterlimit:4;stroke-opacity:1;stroke-dasharray:none"
             id="path3936"
             inkscape:connector-curvature="0" />
          <path
             d="m 836.062,381.211 -17.765,35.703 c 2.699,1.367 5.504,2.832 8.141,4.316 l 19.152,-34.98"
             style="fill:#ffffff;fill-opacity:1;fill-rule:nonzero;stroke:none"
             id="path3938"
             inkscape:connector-curvature="0" />
          <path
             d="m 836.062,381.211 -17.765,35.703 c 2.699,1.367 5.504,2.832 8.141,4.316 l 19.152,-34.98"
             style="fill:none;stroke:#ffffff;stroke-width:2.16229939;stroke-linecap:butt;stroke-linejoin:miter;stroke-miterlimit:4;stroke-opacity:1;stroke-dasharray:none"
             id="path3940"
             inkscape:connector-curvature="0" />
          <path
             d="m 760.293,356.504 -6.871,39.18 c 7.793,1.308 15.527,3.027 23.156,5.156 l 2.934,-10.078 c 4.148,1.152 8.261,2.441 12.347,3.828 l 2.024,7.773 5.988,-13.457 -7.836,-25.039 -31.742,-7.363"
             style="fill:#ffffff;fill-opacity:1;fill-rule:nonzero;stroke:none"
             id="path3942"
             inkscape:connector-curvature="0" />
          <path
             d="m 760.293,356.504 -6.871,39.18 c 7.793,1.308 15.527,3.027 23.156,5.156 l 2.934,-10.078 c 4.148,1.152 8.261,2.441 12.347,3.828 l 2.024,7.773 5.988,-13.457 -7.836,-25.039 -31.742,-7.363 z"
             style="fill:none;stroke:#ffffff;stroke-width:2.16229939;stroke-linecap:butt;stroke-linejoin:miter;stroke-miterlimit:4;stroke-opacity:1;stroke-dasharray:none"
             id="path3944"
             inkscape:connector-curvature="0" />
          <path
             d="m 645.215,361.875 10.347,38.477 c 2.918,-0.782 6.024,-1.504 8.981,-2.168 l -8.836,-38.907"
             style="fill:#ffffff;fill-opacity:1;fill-rule:nonzero;stroke:none"
             id="path3946"
             inkscape:connector-curvature="0" />
          <path
             d="m 645.215,361.875 10.347,38.477 c 2.918,-0.782 6.024,-1.504 8.981,-2.168 l -8.836,-38.907"
             style="fill:none;stroke:#ffffff;stroke-width:2.16229939;stroke-linecap:butt;stroke-linejoin:miter;stroke-miterlimit:4;stroke-opacity:1;stroke-dasharray:none"
             id="path3948"
             inkscape:connector-curvature="0" />
          <path
             d="m 600.242,378.242 16.992,35.977 c -7.664,3.593 -15.121,7.578 -22.351,11.972 l -4.434,-7.304 c 4.75,-2.891 9.61,-5.606 14.563,-8.164 L 590.664,382.93"
             style="fill:#ffffff;fill-opacity:1;fill-rule:nonzero;stroke:none"
             id="path3950"
             inkscape:connector-curvature="0" />
          <path
             d="m 600.242,378.242 16.992,35.977 c -7.664,3.593 -15.121,7.578 -22.351,11.972 l -4.434,-7.304 c 4.75,-2.891 9.61,-5.606 14.563,-8.164 L 590.664,382.93"
             style="fill:none;stroke:#ffffff;stroke-width:2.16229939;stroke-linecap:butt;stroke-linejoin:miter;stroke-miterlimit:4;stroke-opacity:1;stroke-dasharray:none"
             id="path3952"
             inkscape:connector-curvature="0" />
          <path
             d="m 544.898,412.91 25.043,30.82 c -6.578,5.313 -12.867,10.977 -18.828,16.993 l -6.054,-6.035 c 3.925,-3.965 7.988,-7.754 12.175,-11.426 l -20.453,-23.379"
             style="fill:#ffffff;fill-opacity:1;fill-rule:nonzero;stroke:none"
             id="path3954"
             inkscape:connector-curvature="0" />
          <path
             d="m 544.898,412.91 25.043,30.82 c -6.578,5.313 -12.867,10.977 -18.828,16.993 l -6.054,-6.035 c 3.925,-3.965 7.988,-7.754 12.175,-11.426 l -20.453,-23.379"
             style="fill:none;stroke:#ffffff;stroke-width:2.16229939;stroke-linecap:butt;stroke-linejoin:miter;stroke-miterlimit:4;stroke-opacity:1;stroke-dasharray:none"
             id="path3956"
             inkscape:connector-curvature="0" />
          <path
             d="m 481.332,486.758 40.285,10.43 c 1.977,-3.028 4.028,-6.016 6.153,-8.946 l -23.79,-34.297 -6.476,8.321 19.117,24.609 -0.059,0.078 -29.984,-8.808"
             style="fill:#ffffff;fill-opacity:1;fill-rule:nonzero;stroke:none"
             id="path3958"
             inkscape:connector-curvature="0" />
          <path
             d="m 481.332,486.758 40.285,10.43 c 1.977,-3.028 4.028,-6.016 6.153,-8.946 l -23.79,-34.297 -6.476,8.321 19.117,24.609 -0.059,0.078 -29.984,-8.808"
             style="fill:none;stroke:#ffffff;stroke-width:2.16229939;stroke-linecap:butt;stroke-linejoin:miter;stroke-miterlimit:4;stroke-opacity:1;stroke-dasharray:none"
             id="path3960"
             inkscape:connector-curvature="0" />
          <path
             d="m 495.469,528.281 c -0.153,2.461 -0.641,6.407 -1.617,8.946 -1.114,2.929 -2.86,5.781 -6.239,4.492 -3.34,-1.27 -2.039,-5.625 -1.679,-10.313 0.359,-4.707 -0.196,-9.804 -7.172,-12.461 -7.762,-2.968 -14.336,3.477 -16.946,10.274 -1.539,4.023 -2.027,8.125 -2.031,12.383 l 7.68,-0.137 c 0.031,-2.715 0.656,-6.231 1.398,-8.184 1.699,-4.472 3.957,-5.527 6.25,-4.629 1.453,0.547 2.305,2.051 1.602,6.582 -1.438,10.02 1.305,13.907 6.359,15.84 8.906,3.399 15.008,-2.422 18.078,-10.449 1.438,-3.75 2.09,-7.969 2.25,-11.973 l -7.933,-0.371"
             style="fill:#ffffff;fill-opacity:1;fill-rule:nonzero;stroke:none"
             id="path3962"
             inkscape:connector-curvature="0" />
          <path
             d="m 495.469,528.281 c -0.153,2.461 -0.641,6.407 -1.617,8.946 -1.114,2.929 -2.86,5.781 -6.239,4.492 -3.34,-1.27 -2.039,-5.625 -1.679,-10.313 0.359,-4.707 -0.196,-9.804 -7.172,-12.461 -7.762,-2.968 -14.336,3.477 -16.946,10.274 -1.539,4.023 -2.027,8.125 -2.031,12.383 l 7.68,-0.137 c 0.031,-2.715 0.656,-6.231 1.398,-8.184 1.699,-4.472 3.957,-5.527 6.25,-4.629 1.453,0.547 2.305,2.051 1.602,6.582 -1.438,10.02 1.305,13.907 6.359,15.84 8.906,3.399 15.008,-2.422 18.078,-10.449 1.438,-3.75 2.09,-7.969 2.25,-11.973 l -7.933,-0.371 z"
             style="fill:none;stroke:#ffffff;stroke-width:2.16229939;stroke-linecap:butt;stroke-linejoin:miter;stroke-miterlimit:4;stroke-opacity:1;stroke-dasharray:none"
             id="path3964"
             inkscape:connector-curvature="0" />
          <path
             d="m 444.801,606.426 9.902,0.625 c 0.207,-3.262 0.488,-6.563 0.832,-9.863 l 29.637,2.988 c 0.316,-2.988 0.723,-6.172 1.144,-9.141 l -29.531,-4.16 c 0.457,-3.184 0.969,-6.387 1.539,-9.551 l -9.847,-1.777"
             style="fill:#ffffff;fill-opacity:1;fill-rule:nonzero;stroke:none"
             id="path3966"
             inkscape:connector-curvature="0" />
          <path
             d="m 444.801,606.426 9.902,0.625 c 0.207,-3.262 0.488,-6.563 0.832,-9.863 l 29.637,2.988 c 0.316,-2.988 0.723,-6.172 1.144,-9.141 l -29.531,-4.16 c 0.457,-3.184 0.969,-6.387 1.539,-9.551 l -9.847,-1.777"
             style="fill:none;stroke:#ffffff;stroke-width:2.16229939;stroke-linecap:butt;stroke-linejoin:miter;stroke-miterlimit:4;stroke-opacity:1;stroke-dasharray:none"
             id="path3968"
             inkscape:connector-curvature="0" />
          <path
             d="m 488.496,668.809 c -0.863,-3.536 -1.394,-6.875 -1.894,-10.332 0,0 -6.122,-1.661 -8.969,-2.715 -3.469,-1.25 -6.711,-3.301 -7.203,-5.957 -0.11,-0.528 -0.133,-1.153 -0.164,-1.485 l 14.933,-1.465 c -0.301,-3.046 -0.551,-6.093 -0.734,-9.16 l -38.297,2.188 c 0.324,5.449 0.824,10.84 1.473,16.25 0.933,7.676 4.703,13.984 11.679,13.476 5.719,-0.39 9.34,-4.257 9.465,-10.39 l 0.184,-0.039 c 1.496,1.758 2.832,2.441 5.246,3.808 3.777,2.188 14.281,5.821 14.281,5.821"
             style="fill:#ffffff;fill-opacity:1;fill-rule:nonzero;stroke:none"
             id="path3970"
             inkscape:connector-curvature="0" />
          <path
             d="m 488.496,668.809 c -0.863,-3.536 -1.394,-6.875 -1.894,-10.332 0,0 -6.122,-1.661 -8.969,-2.715 -3.469,-1.25 -6.711,-3.301 -7.203,-5.957 -0.11,-0.528 -0.133,-1.153 -0.164,-1.485 l 14.933,-1.465 c -0.301,-3.046 -0.551,-6.093 -0.734,-9.16 l -38.297,2.188 c 0.324,5.449 0.824,10.84 1.473,16.25 0.933,7.676 4.703,13.984 11.679,13.476 5.719,-0.39 9.34,-4.257 9.465,-10.39 l 0.184,-0.039 c 1.496,1.758 2.832,2.441 5.246,3.808 3.777,2.188 14.281,5.821 14.281,5.821 z"
             style="fill:none;stroke:#ffffff;stroke-width:2.16229939;stroke-linecap:butt;stroke-linejoin:miter;stroke-miterlimit:4;stroke-opacity:1;stroke-dasharray:none"
             id="path3972"
             inkscape:connector-curvature="0" />
          <path
             d="m 463.852,725.02 43.027,-1.172 c -1.535,-3.184 -3.008,-6.446 -4.402,-9.688 l -9.059,0.41 c -1.715,-4.16 -3.313,-8.379 -4.785,-12.656 l 7.07,-5.703 c -1.078,-3.242 -2.082,-6.523 -3.012,-9.844 l -32.589,28.77"
             style="fill:#ffffff;fill-opacity:1;fill-rule:nonzero;stroke:none"
             id="path3974"
             inkscape:connector-curvature="0" />
          <path
             d="m 463.852,725.02 43.027,-1.172 c -1.535,-3.184 -3.008,-6.446 -4.402,-9.688 l -9.059,0.41 c -1.715,-4.16 -3.313,-8.379 -4.785,-12.656 l 7.07,-5.703 c -1.078,-3.242 -2.082,-6.523 -3.012,-9.844 l -32.589,28.77"
             style="fill:none;stroke:#ffffff;stroke-width:2.16229939;stroke-linecap:butt;stroke-linejoin:miter;stroke-miterlimit:4;stroke-opacity:1;stroke-dasharray:none"
             id="path3976"
             inkscape:connector-curvature="0" />
          <path
             d="m 530.172,821.504 29.082,-9.727 -16.797,20.586 7.91,6.231 23.719,-31.914 c -2.707,-2.09 -5.375,-4.239 -7.988,-6.446 l -28.055,9.278 17.723,-18.535 c -2.016,-1.934 -3.993,-3.868 -5.942,-5.879 l -28.472,27.754"
             style="fill:#ffffff;fill-opacity:1;fill-rule:nonzero;stroke:none"
             id="path3978"
             inkscape:connector-curvature="0" />
          <path
             d="m 530.172,821.504 29.082,-9.727 -16.797,20.586 7.91,6.231 23.719,-31.914 c -2.707,-2.09 -5.375,-4.239 -7.988,-6.446 l -28.055,9.278 17.723,-18.535 c -2.016,-1.934 -3.993,-3.868 -5.942,-5.879 l -28.472,27.754"
             style="fill:none;stroke:#ffffff;stroke-width:2.16229939;stroke-linecap:butt;stroke-linejoin:miter;stroke-miterlimit:4;stroke-opacity:1;stroke-dasharray:none"
             id="path3980"
             inkscape:connector-curvature="0" />
          <path
             d="m 604.562,833.984 c 5.129,2.715 7.454,8.34 3.512,15.844 -3.949,7.496 -9.898,8.785 -15.027,6.074 -5.082,-2.66 -7.422,-8.3 -3.481,-15.804 3.934,-7.481 9.899,-8.77 14.996,-6.114 z m -15.207,29.051 c 11.602,6.094 22.68,1.531 27.903,-8.39 5.203,-9.938 2.683,-21.637 -8.93,-27.75 -11.648,-6.094 -22.73,-1.543 -27.937,8.398 -5.215,9.922 -2.676,21.637 8.964,27.742"
             style="fill:#ffffff;fill-opacity:1;fill-rule:nonzero;stroke:none"
             id="path3982"
             inkscape:connector-curvature="0" />
          <path
             d="m 604.562,833.984 c 5.129,2.715 7.454,8.34 3.512,15.844 -3.949,7.496 -9.898,8.785 -15.027,6.074 -5.082,-2.66 -7.422,-8.3 -3.481,-15.804 3.934,-7.481 9.899,-8.77 14.996,-6.114 z m -15.207,29.051 c 11.602,6.094 22.68,1.531 27.903,-8.39 5.203,-9.938 2.683,-21.637 -8.93,-27.75 -11.648,-6.094 -22.73,-1.543 -27.937,8.398 -5.215,9.922 -2.676,21.637 8.964,27.742 z"
             style="fill:none;stroke:#ffffff;stroke-width:2.16229939;stroke-linecap:butt;stroke-linejoin:miter;stroke-miterlimit:4;stroke-opacity:1;stroke-dasharray:none"
             id="path3984"
             inkscape:connector-curvature="0" />
          <path
             d="m 647.051,853.094 c 2.453,-0.129 6.41,-0.129 9.062,0.523 3.032,0.758 6.075,2.141 5.215,5.672 -0.867,3.457 -5.336,2.695 -10.039,2.899 -4.711,0.21 -9.711,1.386 -11.516,8.632 -2.003,8.063 5.2,13.801 12.274,15.582 4.168,1.028 8.305,1.028 12.515,0.516 l -1.039,-7.606 c -2.722,0.293 -6.289,0.094 -8.285,-0.398 -4.664,-1.156 -5.98,-3.266 -5.383,-5.644 0.372,-1.512 1.786,-2.54 6.34,-2.399 10.114,0.227 13.66,-2.969 14.965,-8.226 2.301,-9.247 -4.23,-14.614 -12.562,-16.688 -3.903,-0.957 -8.176,-1.094 -12.16,-0.762 l 0.613,7.899"
             style="fill:#ffffff;fill-opacity:1;fill-rule:nonzero;stroke:none"
             id="path3986"
             inkscape:connector-curvature="0" />
          <path
             d="m 647.051,853.094 c 2.453,-0.129 6.41,-0.129 9.062,0.523 3.032,0.758 6.075,2.141 5.215,5.672 -0.867,3.457 -5.336,2.695 -10.039,2.899 -4.711,0.21 -9.711,1.386 -11.516,8.632 -2.003,8.063 5.2,13.801 12.274,15.582 4.168,1.028 8.305,1.028 12.515,0.516 l -1.039,-7.606 c -2.722,0.293 -6.289,0.094 -8.285,-0.398 -4.664,-1.156 -5.98,-3.266 -5.383,-5.644 0.372,-1.512 1.786,-2.54 6.34,-2.399 10.114,0.227 13.66,-2.969 14.965,-8.226 2.301,-9.247 -4.23,-14.614 -12.562,-16.688 -3.903,-0.957 -8.176,-1.094 -12.16,-0.762 l 0.613,7.899 z"
             style="fill:none;stroke:#ffffff;stroke-width:2.16229939;stroke-linecap:butt;stroke-linejoin:miter;stroke-miterlimit:4;stroke-opacity:1;stroke-dasharray:none"
             id="path3988"
             inkscape:connector-curvature="0" />
        </g>
      </g>
      <g
         transform="matrix(0.125,0,0,-0.125,25.480727,411.7403)"
         id="g3990">
        <g
           id="g3992"
           clip-path="url(#clipPath3994)">
          <path
             d="m 715.074,863.656 c 5.375,0 9.735,4.352 9.735,9.731 0,5.371 -4.36,9.722 -9.735,9.722 -5.386,0 -9.738,-4.351 -9.738,-9.722 0,-5.379 4.352,-9.731 9.738,-9.731"
             style="fill:#ffffff;fill-opacity:1;fill-rule:nonzero;stroke:none"
             id="path3998"
             inkscape:connector-curvature="0" />
          <path
             d="m 715.074,863.656 c 5.375,0 9.735,4.352 9.735,9.731 0,5.371 -4.36,9.722 -9.735,9.722 -5.386,0 -9.738,-4.351 -9.738,-9.722 0,-5.379 4.352,-9.731 9.738,-9.731 z"
             style="fill:none;stroke:#ffffff;stroke-width:2.16229939;stroke-linecap:butt;stroke-linejoin:miter;stroke-miterlimit:4;stroke-opacity:1;stroke-dasharray:none"
             id="path4000"
             inkscape:connector-curvature="0" />
          <path
             d="m 912.672,759.922 c 3.035,-4.434 9.121,-5.547 13.535,-2.481 4.422,3.047 5.516,9.102 2.469,13.516 -3.035,4.434 -9.09,5.527 -13.516,2.481 -4.433,-3.047 -5.535,-9.102 -2.488,-13.516"
             style="fill:#ffffff;fill-opacity:1;fill-rule:nonzero;stroke:none"
             id="path4002"
             inkscape:connector-curvature="0" />
          <path
             d="m 912.672,759.922 c 3.035,-4.434 9.121,-5.547 13.535,-2.481 4.422,3.047 5.516,9.102 2.469,13.516 -3.035,4.434 -9.09,5.527 -13.516,2.481 -4.433,-3.047 -5.535,-9.102 -2.488,-13.516 z"
             style="fill:none;stroke:#ffffff;stroke-width:2.16229939;stroke-linecap:butt;stroke-linejoin:miter;stroke-miterlimit:4;stroke-opacity:1;stroke-dasharray:none"
             id="path4004"
             inkscape:connector-curvature="0" />
          <path
             d="m 715.074,383.535 c 5.375,0 9.735,-4.355 9.735,-9.746 0,-5.391 -4.36,-9.727 -9.735,-9.727 -5.386,0 -9.738,4.336 -9.738,9.727 0,5.391 4.352,9.746 9.738,9.746"
             style="fill:#ffffff;fill-opacity:1;fill-rule:nonzero;stroke:none"
             id="path4006"
             inkscape:connector-curvature="0" />
          <path
             d="m 715.074,383.535 c 5.375,0 9.735,-4.355 9.735,-9.746 0,-5.391 -4.36,-9.727 -9.735,-9.727 -5.386,0 -9.738,4.336 -9.738,9.727 0,5.391 4.352,9.746 9.738,9.746 z"
             style="fill:none;stroke:#ffffff;stroke-width:2.16229939;stroke-linecap:butt;stroke-linejoin:miter;stroke-miterlimit:4;stroke-opacity:1;stroke-dasharray:none"
             id="path4008"
             inkscape:connector-curvature="0" />
          <path
             d="m 517.457,759.922 c 3.051,4.414 1.945,10.469 -2.477,13.516 -4.421,3.046 -10.484,1.953 -13.535,-2.481 -3.047,-4.414 -1.937,-10.469 2.485,-13.516 4.414,-3.066 10.48,-1.953 13.527,2.481"
             style="fill:#ffffff;fill-opacity:1;fill-rule:nonzero;stroke:none"
             id="path4010"
             inkscape:connector-curvature="0" />
          <path
             d="m 517.457,759.922 c 3.051,4.414 1.945,10.469 -2.477,13.516 -4.421,3.046 -10.484,1.953 -13.535,-2.481 -3.047,-4.414 -1.937,-10.469 2.485,-13.516 4.414,-3.066 10.48,-1.953 13.527,2.481 z"
             style="fill:none;stroke:#ffffff;stroke-width:2.16229939;stroke-linecap:butt;stroke-linejoin:miter;stroke-miterlimit:4;stroke-opacity:1;stroke-dasharray:none"
             id="path4012"
             inkscape:connector-curvature="0" />
          <path
             d="m 740.867,518.984 65.637,-148.75 8.141,3.086"
             style="fill:#fcd205;fill-opacity:1;fill-rule:nonzero;stroke:none"
             id="path4014"
             inkscape:connector-curvature="0" />
          <path
             d="m 610.188,663.301 -154.512,29.472 -1.059,-0.527 -2.09,-8.457"
             style="fill:#fcd205;fill-opacity:1;fill-rule:nonzero;stroke:none"
             id="path4016"
             inkscape:connector-curvature="0" />
          <path
             d="m 478.621,752.598 -4.047,-7.715 0.531,-1.328 135.083,-80.254"
             style="fill:#fcd205;fill-opacity:1;fill-rule:nonzero;stroke:none"
             id="path4018"
             inkscape:connector-curvature="0" />
        </g>
      </g>
      <g
         transform="matrix(0.125,0,0,-0.125,25.480727,411.7403)"
         id="g4020">
        <g
           id="g4022"
           clip-path="url(#clipPath4024)">
          <path
             d="m 686.504,893.699 28.57,-162.371 28.559,162.371"
             style="fill:#231f20;fill-opacity:1;fill-rule:nonzero;stroke:none"
             id="path4028"
             inkscape:connector-curvature="0" />
          <path
             d="M 752.008,892.691 740.867,728.203 807.465,879.02"
             style="fill:#231f20;fill-opacity:1;fill-rule:nonzero;stroke:none"
             id="path4030"
             inkscape:connector-curvature="0" />
          <path
             d="M 815.289,876.051 765.137,718.984 865.883,849.496"
             style="fill:#231f20;fill-opacity:1;fill-rule:nonzero;stroke:none"
             id="path4032"
             inkscape:connector-curvature="0" />
          <path
             d="M 872.805,844.707 786.52,704.238 915.551,806.816"
             style="fill:#231f20;fill-opacity:1;fill-rule:nonzero;stroke:none"
             id="path4034"
             inkscape:connector-curvature="0" />
          <path
             d="M 921.117,800.547 803.734,684.785 953.578,753.535"
             style="fill:#231f20;fill-opacity:1;fill-rule:nonzero;stroke:none"
             id="path4036"
             inkscape:connector-curvature="0" />
          <path
             d="m 957.477,746.074 -141.665,-84.258 161.926,30.86"
             style="fill:#231f20;fill-opacity:1;fill-rule:nonzero;stroke:none"
             id="path4038"
             inkscape:connector-curvature="0" />
          <path
             d="m 979.77,684.492 -157.739,-47.93 164.614,-8.769"
             style="fill:#231f20;fill-opacity:1;fill-rule:nonzero;stroke:none"
             id="path4040"
             inkscape:connector-curvature="0" />
          <path
             d="M 986.645,619.395 822.031,610.605 979.77,562.676"
             style="fill:#231f20;fill-opacity:1;fill-rule:nonzero;stroke:none"
             id="path4042"
             inkscape:connector-curvature="0" />
          <path
             d="m 977.738,554.531 -161.926,30.86 141.665,-84.297"
             style="fill:#231f20;fill-opacity:1;fill-rule:nonzero;stroke:none"
             id="path4044"
             inkscape:connector-curvature="0" />
          <path
             d="M 953.578,493.633 803.734,562.383 921.117,446.641"
             style="fill:#231f20;fill-opacity:1;fill-rule:nonzero;stroke:none"
             id="path4046"
             inkscape:connector-curvature="0" />
          <path
             d="M 915.551,440.352 786.52,542.969 872.805,402.48"
             style="fill:#231f20;fill-opacity:1;fill-rule:nonzero;stroke:none"
             id="path4048"
             inkscape:connector-curvature="0" />
          <path
             d="M 865.883,397.676 765.137,528.184 815.289,371.133"
             style="fill:#231f20;fill-opacity:1;fill-rule:nonzero;stroke:none"
             id="path4050"
             inkscape:connector-curvature="0" />
          <path
             d="M 743.633,353.496 715.074,515.859 686.504,353.496"
             style="fill:#231f20;fill-opacity:1;fill-rule:nonzero;stroke:none"
             id="path4052"
             inkscape:connector-curvature="0" />
          <path
             d="m 678.141,354.492 11.136,164.492 -66.597,-150.8"
             style="fill:#231f20;fill-opacity:1;fill-rule:nonzero;stroke:none"
             id="path4054"
             inkscape:connector-curvature="0" />
          <path
             d="M 614.848,371.133 665.012,528.184 564.262,397.676"
             style="fill:#231f20;fill-opacity:1;fill-rule:nonzero;stroke:none"
             id="path4056"
             inkscape:connector-curvature="0" />
          <path
             d="M 557.324,402.48 643.629,542.969 514.566,440.352"
             style="fill:#231f20;fill-opacity:1;fill-rule:nonzero;stroke:none"
             id="path4058"
             inkscape:connector-curvature="0" />
          <path
             d="M 509.02,446.641 626.41,562.383 476.559,493.633"
             style="fill:#231f20;fill-opacity:1;fill-rule:nonzero;stroke:none"
             id="path4060"
             inkscape:connector-curvature="0" />
          <path
             d="m 472.645,501.094 141.679,84.297 -161.945,-30.86"
             style="fill:#231f20;fill-opacity:1;fill-rule:nonzero;stroke:none"
             id="path4062"
             inkscape:connector-curvature="0" />
          <path
             d="m 450.367,562.676 157.746,47.929 -164.633,8.79"
             style="fill:#231f20;fill-opacity:1;fill-rule:nonzero;stroke:none"
             id="path4064"
             inkscape:connector-curvature="0" />
          <path
             d="m 443.48,627.793 164.633,8.769 -157.746,47.93"
             style="fill:#231f20;fill-opacity:1;fill-rule:nonzero;stroke:none"
             id="path4066"
             inkscape:connector-curvature="0" />
          <path
             d="m 452.379,692.676 161.945,-30.86 -141.679,84.258"
             style="fill:#231f20;fill-opacity:1;fill-rule:nonzero;stroke:none"
             id="path4068"
             inkscape:connector-curvature="0" />
          <path
             d="M 476.559,753.535 626.41,684.785 509.02,800.547"
             style="fill:#231f20;fill-opacity:1;fill-rule:nonzero;stroke:none"
             id="path4070"
             inkscape:connector-curvature="0" />
          <path
             d="M 514.566,806.816 643.629,704.238 557.324,844.707"
             style="fill:#231f20;fill-opacity:1;fill-rule:nonzero;stroke:none"
             id="path4072"
             inkscape:connector-curvature="0" />
          <path
             d="M 564.262,849.496 665.012,718.984 614.848,876.051"
             style="fill:#231f20;fill-opacity:1;fill-rule:nonzero;stroke:none"
             id="path4074"
             inkscape:connector-curvature="0" />
          <path
             d="M 622.68,879.02 689.277,728.203 678.141,892.691"
             style="fill:#231f20;fill-opacity:1;fill-rule:nonzero;stroke:none"
             id="path4076"
             inkscape:connector-curvature="0" />
          <path
             d="m 885.398,834.18 -25.054,-30.723 c 6.574,-5.332 12.844,-10.977 18.804,-16.992 l 6.063,6.015 c -3.91,3.946 -7.981,7.754 -12.168,11.446 l 20.398,23.457"
             style="fill:#ffffff;fill-opacity:1;fill-rule:nonzero;stroke:none"
             id="path4078"
             inkscape:connector-curvature="0" />
          <path
             d="m 970.18,714.609 -37.5,-13.32 c -0.996,2.813 -2.137,5.781 -3.289,8.594 l 37.019,14.785"
             style="fill:#ffffff;fill-opacity:1;fill-rule:nonzero;stroke:none"
             id="path4080"
             inkscape:connector-curvature="0" />
          <path
             d="m 984.996,645.898 -30.664,6.192 -0.02,0.098 28.379,12.929 -1.796,10.41 -37.071,-19.336 c 0.535,-3.613 0.926,-7.187 1.278,-10.8 l 40.5,-9.532"
             style="fill:#ffffff;fill-opacity:1;fill-rule:nonzero;stroke:none"
             id="path4082"
             inkscape:connector-curvature="0" />
          <path
             d="m 962.379,513.047 -9.172,4.082 c 1.34,2.969 2.637,6.035 3.848,9.101 l -27.606,11.153 c 1.133,2.812 2.235,5.801 3.231,8.613 l 28.078,-10.058 c 1.074,3.046 2.129,6.113 3.094,9.179 l 9.503,-2.988"
             style="fill:#ffffff;fill-opacity:1;fill-rule:nonzero;stroke:none"
             id="path4084"
             inkscape:connector-curvature="0" />
          <path
             d="m 934.789,465.273 -32.234,23.321 c 1.746,2.441 3.554,5.097 5.203,7.597 l 33.183,-22.07"
             style="fill:#ffffff;fill-opacity:1;fill-rule:nonzero;stroke:none"
             id="path4086"
             inkscape:connector-curvature="0" />
          <path
             d="m 882.613,410.801 -6.207,7.812 c 2.578,2.051 5.137,4.121 7.649,6.27 l -19.266,22.734 c 2.313,1.953 4.668,4.082 6.883,6.113 l 20.152,-21.953 c 2.399,2.188 4.738,4.414 7,6.7 l 7.031,-7.11"
             style="fill:#ffffff;fill-opacity:1;fill-rule:nonzero;stroke:none"
             id="path4088"
             inkscape:connector-curvature="0" />
          <path
             d="m 836.062,381.211 -17.765,35.703 c 2.699,1.367 5.504,2.832 8.141,4.316 l 19.152,-34.98"
             style="fill:#ffffff;fill-opacity:1;fill-rule:nonzero;stroke:none"
             id="path4090"
             inkscape:connector-curvature="0" />
          <path
             d="m 807.465,368.184 -66.598,150.8 11.141,-164.492"
             style="fill:#231f20;fill-opacity:1;fill-rule:nonzero;stroke:none"
             id="path4092"
             inkscape:connector-curvature="0" />
        </g>
      </g>
      <g
         transform="matrix(0.125,0,0,-0.125,25.480727,411.7403)"
         id="g4094">
        <g
           id="g4096"
           clip-path="url(#clipPath4098)">
          <g
             id="g4102"
             clip-path="url(#clipPath4104)">
            <path
               d="m 785.133,369.785 -3.688,13.516 c 2.66,0.742 5.629,1.621 8.395,2.48 l -4.219,-15.879 -0.488,-0.117 z m 6.902,-5.918 7.836,25.039 -5.988,13.457 -2.024,-7.773 c -4.086,-1.387 -8.199,-2.676 -12.347,-3.828 l -2.934,10.078 c -7.629,-2.129 -15.363,-3.848 -23.156,-5.156 l 1.406,-8.418 c 4.781,0.8 9.547,1.738 14.863,2.988 l 1.676,-6.641 c -4.996,-1.152 -9.41,-2.051 -13.84,-2.832 l 1.258,-7.578 c 4.672,0.801 9.188,1.738 14.434,2.93 l 1.625,-6.485 c -5.789,-1.347 -10.965,-2.382 -16.16,-3.261 l 1.609,-9.883"
               style="fill:#ffffff;fill-opacity:1;fill-rule:nonzero;stroke:none"
               id="path4108"
               inkscape:connector-curvature="0" />
          </g>
        </g>
      </g>
      <g
         transform="matrix(0.125,0,0,-0.125,25.480727,411.7403)"
         id="g4110">
        <g
           id="g4112"
           clip-path="url(#clipPath4114)">
          <path
             d="m 645.215,361.875 10.347,38.477 c 2.918,-0.782 6.024,-1.504 8.981,-2.168 l -8.836,-38.907"
             style="fill:#ffffff;fill-opacity:1;fill-rule:nonzero;stroke:none"
             id="path4118"
             inkscape:connector-curvature="0" />
          <path
             d="m 600.242,378.242 16.992,35.977 c -7.664,3.593 -15.121,7.578 -22.351,11.972 l -4.434,-7.304 c 4.75,-2.891 9.61,-5.606 14.563,-8.164 L 590.664,382.93"
             style="fill:#ffffff;fill-opacity:1;fill-rule:nonzero;stroke:none"
             id="path4120"
             inkscape:connector-curvature="0" />
          <path
             d="m 544.898,412.91 25.043,30.82 c -6.578,5.313 -12.867,10.977 -18.828,16.993 l -6.054,-6.035 c 3.925,-3.965 7.988,-7.754 12.175,-11.426 l -20.453,-23.379"
             style="fill:#ffffff;fill-opacity:1;fill-rule:nonzero;stroke:none"
             id="path4122"
             inkscape:connector-curvature="0" />
          <path
             d="m 481.332,486.758 40.285,10.43 c 1.977,-3.028 4.028,-6.016 6.153,-8.946 l -23.79,-34.297 -6.476,8.321 19.117,24.609 -0.059,0.078 -29.984,-8.808"
             style="fill:#ffffff;fill-opacity:1;fill-rule:nonzero;stroke:none"
             id="path4124"
             inkscape:connector-curvature="0" />
          <path
             d="m 444.801,606.426 9.902,0.625 c 0.207,-3.262 0.488,-6.563 0.832,-9.863 l 29.637,2.988 c 0.316,-2.988 0.723,-6.172 1.144,-9.141 l -29.531,-4.16 c 0.457,-3.184 0.969,-6.387 1.539,-9.551 l -9.847,-1.777"
             style="fill:#ffffff;fill-opacity:1;fill-rule:nonzero;stroke:none"
             id="path4126"
             inkscape:connector-curvature="0" />
          <path
             d="m 454.285,654.238 c -0.16,-1.445 -0.187,-2.89 -0.355,-4.472 l 9.547,-0.957 c 0.121,1.328 0.308,2.91 0.464,4.296 0.282,2.383 -0.195,6.036 -4.07,6.465 -3.152,0.371 -5.141,-1.328 -5.586,-5.332 z m -8.371,2.032 1.727,-0.137 c 0.933,7.676 4.703,13.984 11.679,13.476 5.719,-0.39 9.34,-4.257 9.465,-10.39 l 0.184,-0.039 c 1.496,1.758 2.832,2.441 5.246,3.808 3.777,2.188 14.281,5.821 14.281,5.821 -0.863,-3.536 -1.394,-6.875 -1.894,-10.332 0,0 -6.122,-1.661 -8.969,-2.715 -3.469,-1.25 -6.711,-3.301 -7.203,-5.957 -0.11,-0.528 -0.133,-1.153 -0.164,-1.485 l 14.933,-1.465 c -0.301,-3.046 -0.551,-6.093 -0.734,-9.16 l -40.145,2.325"
             style="fill:#ffffff;fill-opacity:1;fill-rule:nonzero;stroke:none"
             id="path4128"
             inkscape:connector-curvature="0" />
          <path
             d="m 469.984,716.504 12.481,-9.59 c 1.012,2.832 2.078,5.606 3.187,8.418 l -15.629,1.289 -0.039,-0.117 z m -6.132,8.516 43.027,-1.172 c -1.535,-3.184 -3.008,-6.446 -4.402,-9.688 l -9.059,0.41 c -1.715,-4.16 -3.313,-8.379 -4.785,-12.656 l 7.07,-5.703 c -1.078,-3.242 -2.082,-6.523 -3.012,-9.844 l -32.589,28.77"
             style="fill:#ffffff;fill-opacity:1;fill-rule:nonzero;stroke:none"
             id="path4130"
             inkscape:connector-curvature="0" />
          <path
             d="m 530.172,821.504 29.082,-9.727 -16.797,20.586 7.91,6.231 23.719,-31.914 c -2.707,-2.09 -5.375,-4.239 -7.988,-6.446 l -28.055,9.278 17.723,-18.535 c -2.016,-1.934 -3.993,-3.868 -5.942,-5.879 l -28.472,27.754"
             style="fill:#ffffff;fill-opacity:1;fill-rule:nonzero;stroke:none"
             id="path4132"
             inkscape:connector-curvature="0" />
          <path
             d="m 761.527,858.406 c 2.106,-1.269 5.606,-3.105 8.27,-3.746 3.031,-0.73 6.371,-0.926 7.238,2.606 0.848,3.461 -3.465,4.851 -7.527,7.23 -4.074,2.379 -7.953,5.738 -6.188,12.992 1.989,8.063 11.016,9.821 18.106,8.082 4.172,-1.035 7.836,-2.945 11.316,-5.363 l -4.445,-6.242 c -2.274,1.527 -5.531,3.012 -7.527,3.504 -4.665,1.14 -6.809,-0.117 -7.387,-2.504 -0.363,-1.516 0.394,-3.082 4.508,-5.063 9.058,-4.511 10.714,-8.992 9.433,-14.254 -2.269,-9.242 -10.554,-10.96 -18.89,-8.914 -3.899,0.946 -7.75,2.821 -11.133,4.969 l 4.226,6.703"
             style="fill:#ffffff;fill-opacity:1;fill-rule:nonzero;stroke:none"
             id="path4134"
             inkscape:connector-curvature="0" />
          <path
             d="m 825.496,834.043 c 5.125,-2.695 11.102,-1.406 15.027,6.074 3.934,7.524 1.606,13.153 -3.527,15.844 -5.078,2.672 -11.027,1.398 -14.965,-6.113 -3.941,-7.504 -1.621,-13.149 3.465,-15.805 z m 15.285,28.992 c 11.598,-6.09 14.129,-17.801 8.938,-27.723 -5.223,-9.941 -16.305,-14.492 -27.903,-8.417 -11.648,6.113 -14.187,17.832 -8.98,27.765 5.211,9.922 16.301,14.481 27.945,8.375"
             style="fill:#ffffff;fill-opacity:1;fill-rule:nonzero;stroke:none"
             id="path4136"
             inkscape:connector-curvature="0" />
          <path
             d="m 953.766,605.684 c -1.016,-2.246 -2.395,-5.938 -2.715,-8.653 -0.371,-3.105 -0.176,-6.445 3.437,-6.875 3.543,-0.429 4.414,4.024 6.27,8.36 1.883,4.296 4.734,8.574 12.176,7.675 8.234,-0.976 11.066,-9.746 10.187,-16.992 -0.508,-4.297 -1.992,-8.125 -3.945,-11.894 l -6.758,3.672 c 1.25,2.421 2.344,5.839 2.578,7.91 0.566,4.746 -0.949,6.738 -3.359,7.011 -1.555,0.196 -3.02,-0.742 -4.504,-5.097 -3.399,-9.512 -7.637,-11.699 -12.996,-11.055 -9.453,1.133 -12.16,9.16 -11.145,17.676 0.481,3.984 1.856,8.027 3.594,11.621 l 7.18,-3.359"
             style="fill:#ffffff;fill-opacity:1;fill-rule:nonzero;stroke:none"
             id="path4138"
             inkscape:connector-curvature="0" />
          <path
             d="m 495.469,528.281 c -0.153,2.461 -0.641,6.407 -1.617,8.946 -1.114,2.929 -2.86,5.781 -6.239,4.492 -3.34,-1.27 -2.039,-5.625 -1.679,-10.313 0.359,-4.707 -0.196,-9.804 -7.172,-12.461 -7.762,-2.968 -14.336,3.477 -16.946,10.274 -1.539,4.023 -2.027,8.125 -2.031,12.383 l 7.68,-0.137 c 0.031,-2.715 0.656,-6.231 1.398,-8.184 1.699,-4.472 3.957,-5.527 6.25,-4.629 1.453,0.547 2.305,2.051 1.602,6.582 -1.438,10.02 1.305,13.907 6.359,15.84 8.906,3.399 15.008,-2.422 18.078,-10.449 1.438,-3.75 2.09,-7.969 2.25,-11.973 l -7.933,-0.371"
             style="fill:#ffffff;fill-opacity:1;fill-rule:nonzero;stroke:none"
             id="path4140"
             inkscape:connector-curvature="0" />
          <path
             d="m 604.562,833.984 c 5.129,2.715 7.454,8.34 3.512,15.844 -3.949,7.496 -9.898,8.785 -15.027,6.074 -5.082,-2.66 -7.422,-8.3 -3.481,-15.804 3.934,-7.481 9.899,-8.77 14.996,-6.114 z m -15.207,29.051 c 11.602,6.094 22.68,1.531 27.903,-8.39 5.203,-9.938 2.683,-21.637 -8.93,-27.75 -11.648,-6.094 -22.73,-1.543 -27.937,8.398 -5.215,9.922 -2.676,21.637 8.964,27.742"
             style="fill:#ffffff;fill-opacity:1;fill-rule:nonzero;stroke:none"
             id="path4142"
             inkscape:connector-curvature="0" />
          <path
             d="m 647.051,853.094 c 2.453,-0.129 6.41,-0.129 9.062,0.523 3.032,0.758 6.075,2.141 5.215,5.672 -0.867,3.457 -5.336,2.695 -10.039,2.899 -4.711,0.21 -9.711,1.386 -11.516,8.632 -2.003,8.063 5.2,13.801 12.274,15.582 4.168,1.028 8.305,1.028 12.515,0.516 l -1.039,-7.606 c -2.722,0.293 -6.289,0.094 -8.285,-0.398 -4.664,-1.156 -5.98,-3.266 -5.383,-5.644 0.372,-1.512 1.786,-2.54 6.34,-2.399 10.114,0.227 13.66,-2.969 14.965,-8.226 2.301,-9.247 -4.23,-14.614 -12.562,-16.688 -3.903,-0.957 -8.176,-1.094 -12.16,-0.762 l 0.613,7.899"
             style="fill:#ffffff;fill-opacity:1;fill-rule:nonzero;stroke:none"
             id="path4144"
             inkscape:connector-curvature="0" />
          <path
             d="m 715.074,863.656 c 5.375,0 9.735,4.352 9.735,9.731 0,5.371 -4.36,9.722 -9.735,9.722 -5.386,0 -9.738,-4.351 -9.738,-9.722 0,-5.379 4.352,-9.731 9.738,-9.731"
             style="fill:#ffffff;fill-opacity:1;fill-rule:nonzero;stroke:none"
             id="path4146"
             inkscape:connector-curvature="0" />
          <path
             d="m 912.672,759.922 c 3.035,-4.434 9.121,-5.547 13.535,-2.481 4.422,3.047 5.516,9.102 2.469,13.516 -3.035,4.434 -9.09,5.527 -13.516,2.481 -4.433,-3.047 -5.535,-9.102 -2.488,-13.516"
             style="fill:#ffffff;fill-opacity:1;fill-rule:nonzero;stroke:none"
             id="path4148"
             inkscape:connector-curvature="0" />
          <path
             d="m 715.074,383.535 c 5.375,0 9.735,-4.355 9.735,-9.746 0,-5.391 -4.36,-9.727 -9.735,-9.727 -5.386,0 -9.738,4.336 -9.738,9.727 0,5.391 4.352,9.746 9.738,9.746"
             style="fill:#ffffff;fill-opacity:1;fill-rule:nonzero;stroke:none"
             id="path4150"
             inkscape:connector-curvature="0" />
          <path
             d="m 517.457,759.922 c 3.051,4.414 1.945,10.469 -2.477,13.516 -4.421,3.046 -10.484,1.953 -13.535,-2.481 -3.047,-4.414 -1.937,-10.469 2.485,-13.516 4.414,-3.066 10.48,-1.953 13.527,2.481"
             style="fill:#ffffff;fill-opacity:1;fill-rule:nonzero;stroke:none"
             id="path4152"
             inkscape:connector-curvature="0" />
        </g>
      </g>
      <g
         transform="matrix(0.125,0,0,-0.125,25.480727,411.7403)"
         clip-path="url(#clipPath4158)"
         id="g4156">
        <path
           inkscape:connector-curvature="0"
           id="path4162"
           style="fill:#ed1639;fill-opacity:1;fill-rule:nonzero;stroke:none"
           d="m 752.008,586.68 c -3.039,-3.106 -7.25,-5.02 -11.926,-5.02 l -9.805,0 c -5.488,0 -10.359,-2.656 -13.402,-6.758 l -3.613,0 c -3.032,4.102 -7.914,6.758 -13.403,6.758 l -9.797,0 c -9.21,0 -16.679,7.461 -16.679,16.68 l 0,66.953" />
        <path
           inkscape:connector-curvature="0"
           id="path4164"
           style="fill:#ffffff;fill-opacity:1;fill-rule:nonzero;stroke:none"
           d="m 673.383,665.293 83.379,0 0,-66.953 c 0,-4.57 -1.805,-8.652 -4.754,-11.66" />
        <path
           inkscape:connector-curvature="0"
           id="path4166"
           style="fill:#231f20;fill-opacity:1;fill-rule:nonzero;stroke:none"
           d="m 752.516,661.016 -74.883,0 0,-62.461 c 0,-6.817 5.566,-12.403 12.429,-12.403 l 9.797,0 c 5.977,0 11.258,-2.5 15.079,-6.484 l 0.261,0 c 3.832,3.984 9.113,6.484 15.078,6.484 l 9.805,0 c 6.871,0 12.434,5.586 12.434,12.403 l 0,62.461 z m 8.597,-62.461 c 0,-11.602 -9.425,-20.996 -21.031,-20.996 l -9.805,0 c -5.144,0 -9.558,-3.145 -11.449,-7.598 l -7.519,0 c -1.879,4.453 -6.293,7.598 -11.45,7.598 l -9.797,0 c -11.617,0 -21.031,9.394 -21.031,20.996 l 0,71.093 92.082,0 0,-71.093" />
        <path
           inkscape:connector-curvature="0"
           id="path4168"
           style="fill:#000000;fill-opacity:1;fill-rule:nonzero;stroke:none"
           d="m 1827.77,686.797 49.2,0 0,-7.414 -1.33,0 c -15.2,0 -17.48,-6.649 -17.48,-15.762 l 0,-47.305 c 0,-42.363 -30.77,-50.339 -53.38,-50.339 -34.2,0 -55.85,14.812 -55.85,43.875 l 0,56.613 c 0,9.5 -2.67,12.918 -13.3,12.918 l -3.23,0 0,7.414 59.46,0 0,-7.414 -3.23,0 c -7.98,0 -13.49,-3.602 -13.49,-12.918 l 0,-56.613 c 0,-23.172 17.1,-31.153 34.39,-31.153 24.89,0 37.23,14.063 37.23,34.953 l 0,46.172 c 0,13.485 -3.8,19.559 -15.57,19.559 l -3.42,0 0,7.414" />
        <path
           inkscape:connector-curvature="0"
           id="path4170"
           style="fill:#000000;fill-opacity:1;fill-rule:nonzero;stroke:none"
           d="m 1971.98,585.918 c 0,-9.309 3.42,-11.211 10.83,-11.211 l 0,-6.074 -44.84,0 0,6.074 c 7.8,0.574 10.83,5.898 10.83,21.473 l 0,16.523 c 0,15.195 -4.18,21.086 -11.77,21.086 -5.89,0 -12.16,-2.844 -20.14,-8.359 l 0,-38.555 c 0,-8.555 3.61,-12.168 11.21,-12.168 l 1.71,0 0,-6.074 -48.07,0 0,6.074 1.15,0 c 7.97,0 10.83,3.426 10.83,13.301 l 0,37.051 c 0,4.179 -2.29,6.64 -8.94,8.543 l -3.98,1.144 0,4.559 32.48,11.015 3.61,0 0,-16.902 c 13.87,9.109 26.03,14.812 35.15,14.812 13.86,0 19.94,-9.882 19.94,-32.675 l 0,-29.637" />
        <path
           inkscape:connector-curvature="0"
           id="path4172"
           style="fill:#000000;fill-opacity:1;fill-rule:nonzero;stroke:none"
           d="m 2028.23,680.527 c 0,-7.597 -7.22,-12.922 -15.01,-12.922 -8.74,0 -15.2,5.508 -15.2,12.922 0,6.836 7.22,12.918 15.2,12.918 8.74,0 15.01,-5.703 15.01,-12.918 z m 8.92,-111.894 -47.49,0 0,6.074 2.09,0 c 7.79,0 10.64,3.426 10.64,13.301 l 0,36.472 c 0,4.942 -1.14,6.27 -6.46,8.176 l -6.27,2.274 0,4.562 32.48,10.828 3.42,0 0,-63.64 c 0,-7.793 3.23,-11.973 11.59,-11.973 l 0,-6.074" />
        <path
           inkscape:connector-curvature="0"
           id="path4174"
           style="fill:#000000;fill-opacity:1;fill-rule:nonzero;stroke:none"
           d="m 2039.25,646.141 48.25,0 0,-6.082 -6.65,0 c -3.98,0 -5.7,-3.606 -2.47,-10.637 l 16.91,-37.801 14.82,33.438 c 4.37,9.871 2.09,13.671 -11.21,15 l 0,6.082 37.8,0 0,-6.082 c -9.87,-0.95 -12.34,-3.418 -15.95,-11.399 l -27.17,-61.355 -11.4,0 -28.3,60.976 c -3.61,7.793 -6.27,10.828 -14.63,11.778 l 0,6.082" />
        <path
           inkscape:connector-curvature="0"
           id="path4176"
           style="fill:#000000;fill-opacity:1;fill-rule:nonzero;stroke:none"
           d="m 2188.76,615.742 c -0.18,14.629 -5.31,23.563 -13.48,23.563 -7.78,0 -14.82,-10.067 -13.49,-23.563 l 26.97,0 z m 24.52,-25.07 c -10.64,-15.008 -26.03,-24.129 -40.66,-24.129 -20.7,0 -34.76,15.957 -34.76,38.945 0,25.078 16.9,42.742 40.65,42.742 10.07,0 18.05,-3.23 23.94,-9.121 11.21,-11.211 5.88,-21.843 12.54,-25.261 l 0,-5.508 -52.63,0 c 1.52,-15.774 12.16,-27.735 23.37,-27.735 7.03,0 13.86,3.985 23.17,13.672 l 4.38,-3.605" />
        <path
           inkscape:connector-curvature="0"
           id="path4178"
           style="fill:#000000;fill-opacity:1;fill-rule:nonzero;stroke:none"
           d="m 2277.88,568.633 -52.82,0 0,6.074 1.33,0 c 7.79,0 10.65,3.426 10.65,13.301 l 0,30.965 c 0,8.547 -1.15,10.449 -6.85,12.726 l -5.13,2.09 0,4.754 31.16,11.777 3.99,0 0,-21.277 0.38,0 c 7.02,13.68 10.07,19.187 16.52,19.187 1.33,0 2.86,-0.195 3.8,-0.574 l 15.01,-5.508 c -2.27,-7.98 -5.32,-14.816 -9.12,-20.136 -5.89,2.285 -12.92,4.754 -15.38,4.754 -3.81,0 -7.03,-2.664 -11.21,-8.555 l 0,-30.77 c 0,-9.121 2.85,-12.734 12.72,-12.734 l 4.95,0 0,-6.074" />
        <path
           inkscape:connector-curvature="0"
           id="path4180"
           style="fill:#000000;fill-opacity:1;fill-rule:nonzero;stroke:none"
           d="m 2307.91,591.043 6.08,0 c 3.22,-10.633 11.58,-16.336 19.76,-16.336 5.31,0 9.87,3.992 9.87,8.738 0,13.117 -35.71,17.668 -35.71,40.657 0,14.441 11.97,24.128 29.82,24.128 7.22,0 13.3,-1.14 21.28,-3.992 l 0.38,-20.324 -6.08,0 c -3.42,10.449 -9.69,16.145 -17.86,16.145 -4.94,0 -8.74,-3.039 -8.74,-7.219 0,-15.574 37.43,-16.141 37.43,-42.168 0,-14.063 -10.07,-23.945 -24.7,-23.945 -13.11,0 -17.47,2.668 -20.14,2.668 -1.14,0 -2.27,-0.762 -3.8,-2.473 l -5.5,0 -2.09,24.121" />
        <path
           inkscape:connector-curvature="0"
           id="path4182"
           style="fill:#000000;fill-opacity:1;fill-rule:nonzero;stroke:none"
           d="m 2412.59,680.527 c 0,-7.597 -7.21,-12.922 -15.01,-12.922 -8.74,0 -15.19,5.508 -15.19,12.922 0,6.836 7.21,12.918 15.19,12.918 8.74,0 15.01,-5.703 15.01,-12.918 z m 8.93,-111.894 -47.49,0 0,6.074 2.09,0 c 7.78,0 10.63,3.426 10.63,13.301 l 0,36.472 c 0,4.942 -1.14,6.27 -6.45,8.176 l -6.27,2.274 0,4.562 32.48,10.828 3.42,0 0,-63.64 c 0,-7.793 3.23,-11.973 11.59,-11.973 l 0,-6.074" />
        <path
           inkscape:connector-curvature="0"
           id="path4184"
           style="fill:#000000;fill-opacity:1;fill-rule:nonzero;stroke:none"
           d="m 2464.46,589.715 c 0,-7.02 3.23,-10.067 8.74,-10.067 4.56,0 8.92,2.852 14.43,9.5 l 2.67,-5.32 c -5.71,-10.254 -17.1,-17.285 -27.55,-17.285 -12.92,0 -21.47,7.215 -21.47,23.555 l 0,45.593 -10.06,0 0,4.942 c 11.39,4.746 24.31,18.613 27.73,29.258 l 5.51,0 0,-23.75 24.89,0 -2.85,-10.45 -22.04,0 0,-45.976" />
        <path
           inkscape:connector-curvature="0"
           id="path4186"
           style="fill:#000000;fill-opacity:1;fill-rule:nonzero;stroke:none"
           d="m 2519.74,622.773 c -6.64,13.68 -9.87,17.286 -18.05,17.286 l 0,6.082 48.45,0 0,-6.082 c -9.88,0 -11.39,-3.801 -7.79,-11.399 l 15.77,-32.676 14.43,29.258 c 4,8.176 1.53,14.629 -9.87,14.817 l 0,6.082 35.33,0 0,-6.082 c -8.54,-1.895 -11.01,-4.18 -16.34,-15 l -42.54,-86.633 c -4.76,-9.5 -10.65,-14.063 -17.3,-14.063 -6.83,0 -11.96,4.563 -11.96,10.832 0,3.047 1.14,6.27 2.85,7.977 8.74,8.742 18.81,-3.035 28.88,19.004 l 3.8,8.359 -25.66,52.238" />
      </g>
    </g>
  </g>
</svg>
