<?xml version="1.0" encoding="UTF-8" standalone="no"?>
<!-- Created with Inkscape (http://www.inkscape.org/) -->

<svg
   xmlns:dc="http://purl.org/dc/elements/1.1/"
   xmlns:cc="http://creativecommons.org/ns#"
   xmlns:rdf="http://www.w3.org/1999/02/22-rdf-syntax-ns#"
   xmlns:svg="http://www.w3.org/2000/svg"
   xmlns="http://www.w3.org/2000/svg"
   xmlns:sodipodi="http://sodipodi.sourceforge.net/DTD/sodipodi-0.dtd"
   xmlns:inkscape="http://www.inkscape.org/namespaces/inkscape"
   version="1.1"
   width="100"
   height="100"
   id="svg3787"
   inkscape:version="0.48.3.1 r9886"
   sodipodi:docname="passwordicon.svg">
  <sodipodi:namedview
     pagecolor="#ffffff"
     bordercolor="#666666"
     borderopacity="1"
     objecttolerance="10"
     gridtolerance="10"
     guidetolerance="10"
     inkscape:pageopacity="0"
     inkscape:pageshadow="2"
     inkscape:window-width="908"
     inkscape:window-height="800"
     id="namedview6068"
     showgrid="false"
     inkscape:zoom="3.337544"
     inkscape:cx="69.942435"
     inkscape:cy="51.725212"
     inkscape:window-x="506"
     inkscape:window-y="198"
     inkscape:window-maximized="0"
     inkscape:current-layer="svg3787" />
  <defs
     id="defs3789" />
  <metadata
     id="metadata3792">
    <rdf:RDF>
      <cc:Work
         rdf:about="">
        <dc:format>image/svg+xml</dc:format>
        <dc:type
           rdf:resource="http://purl.org/dc/dcmitype/StillImage" />
        <dc:title />
      </cc:Work>
    </rdf:RDF>
  </metadata>
  <g
     transform="translate(0,-952.36218)"
     id="layer1"
     style="fill:#ffffff">
    <g
       id="g6095"
       style="fill:#ffffff">
      <path
         style="fill:#ffffff;fill-opacity:1;fill-rule:nonzero;stroke:none"
         id="path3808"
         d="M 49.62693,964.16473 C 38.985154,953.30467 21.559557,953.12775 10.699453,963.76957 -0.16055139,974.4113 -0.34773359,991.84699 10.294042,1002.707 c 10.641778,10.8601 28.077674,11.0269 38.937678,0.3852 10.860104,-10.64181 11.036988,-28.06741 0.39521,-38.92747 z m -21.255049,6.03564 c 2.918633,2.9785 2.870179,7.75336 -0.108337,10.67201 -2.978487,2.91862 -7.753352,2.87013 -10.671985,-0.10837 -2.91863,-2.9785 -2.88024,-7.76363 0.09825,-10.68225 2.978515,-2.91865 7.763444,-2.85989 10.682074,0.11861 z" />
      <path
         sodipodi:nodetypes="cccccccc"
         inkscape:connector-curvature="0"
         style="fill:#ffffff;fill-opacity:1;stroke:none"
         id="path3829"
         d="m 95.771311,1031.4817 -0.15441,15.205 -17.856068,-0.1813 C 65.875981,1025.619 64.805763,1019.782 47.620899,1019.6075 l -11.693142,-11.933 18.572701,-18.19932 c 0,0 27.532913,27.98622 41.271148,42.00622 z" />
    </g>
  </g>
</svg>
